<svg xmlns="http://www.w3.org/2000/svg" viewBox="0 0 1278.58 369.76"><defs><style>.cls-1{fill:#fff;}</style></defs><title>Main Logo &amp;apos;20 White_1</title><g id="Layer_2" data-name="Layer 2"><g id="Layer_1-2" data-name="Layer 1"><path class="cls-1" d="M612.71,134.05c1.07-1.34.67-2.67.7-3.89.05-2.39.05-4.8-.1-7.19a4.43,4.43,0,0,0-1.06-2.09c-4.9-6.48-11.22-10.28-19.51-10.61-14.55-.58-28.73,1.11-42.34,6.57-4.59,1.85-9.22,3.63-13.85,5.41-1.31.5-2.69.85-4.46,1.41,0-3.09-.12-5.79,0-8.48a3.71,3.71,0,0,1,1-2.05,19,19,0,0,1,2.5-2.24,5.37,5.37,0,0,0,2.16-4.55c-.07-10.24,0-20.48,0-30.72a7.83,7.83,0,0,0-.4-1.63,23.37,23.37,0,0,0-2.68-.39c-1.6-.07-3.2,0-4.8,0q-145.44,0-290.88,0c-2,0-4.14.42-6.07-.49-.79-4.14-.74-12.29.08-15.75a4.6,4.6,0,0,1,1.31-.39q480.71,0,961.42,0a4.52,4.52,0,0,1,1.29.41,58.75,58.75,0,0,1-.09,15.89,16.31,16.31,0,0,1-2.21.32c-1.59.06-3.2,0-4.8,0h-215c-2.06,0-4.11.06-6.34.09a19.39,19.39,0,0,0-.44,2.56c0,5.44,0,10.88,0,16.32a13.54,13.54,0,0,0,.15,1.91,2,2,0,0,0,2.07,1.61,32.33,32.33,0,0,0,3.72-.87,132.22,132.22,0,0,1,23.53-4.47,79.19,79.19,0,0,1,22.89,1.48,35,35,0,0,1,9.85,3.69A27.61,27.61,0,0,1,1042.4,109a48,48,0,0,1,4.3,17.13c.45,8.3.79,16.61.86,24.93.13,16.79,0,33.6,0,50.4v5.32c-.66.12-1.17.39-1.52.26a144.18,144.18,0,0,1-19.25-9.13l-1.69-5.54a13,13,0,0,0-2.36.7c-1.56.81-3.08,1.7-4.58,2.62-10.8,6.63-22.69,9.22-35.21,9.65a63.78,63.78,0,0,1-27.63-5,42.37,42.37,0,0,1-17.45-13.12,26.65,26.65,0,0,1-5.49-21.2,28.06,28.06,0,0,1,4.06-10.18,51,51,0,0,1,10.95-12.65,73.24,73.24,0,0,1,51.5-17.36,55.21,55.21,0,0,1,23.83,6.7c.94.51,1.9,1,2.93,1.48.56-2.76.9-9.8.48-11.13a7.61,7.61,0,0,0-1.12-2.08c-4.85-6.56-11.2-10.29-19.49-10.61-14.55-.58-28.73,1.12-42.33,6.59-4.6,1.85-9.22,3.64-13.85,5.41-1.32.5-2.69.85-4.33,1.37V114a34.5,34.5,0,0,1,2.69-2.48,6.89,6.89,0,0,0,2.92-6.14c-.16-9.43-.06-18.87-.07-28.31,0-.94-.1-1.88-.16-3.08-1.1-.17-2-.37-2.9-.42-1.11-.07-2.24,0-3.36,0h-127c-1.5,1.81-.94,3.65-.94,5.33,0,13.44.07,26.88.1,40.32,0,11.52,0,23,0,34.56a73.48,73.48,0,0,0,1.87,16.65c2.07,8.95,7.44,14.41,16.35,16.95,13,3.7,24.66,1.63,35.22-6.75a55.29,55.29,0,0,0,19.74-29.88,40.2,40.2,0,0,0,1-10.48q-.1-21.84-.22-43.68c0-1.54.1-3.09.16-4.64a7,7,0,0,1,1.76,0q11.79,4,23.58,8.13a21.87,21.87,0,0,1,2.33,1.13v5.27c0,44.32-.13,88.64.06,133,.07,16.77-6.65,30-19.29,40.51a74.81,74.81,0,0,1-26.21,13.67c-13.21,4.06-26.72,4.78-40.37,3.42a131,131,0,0,1-15.13-2.46,81.31,81.31,0,0,1-29.91-13.67,51.62,51.62,0,0,1-13.73-14.59,33.91,33.91,0,0,1-5.33-13.93c-1.54.13-2.78.18-4,.35A36,36,0,0,1,743.59,250c-5.36-2.48-10.67-5.11-16-7.61q-6.3-3-12.66-5.76c-13.72-6.1-27.85-6.82-42.21-2.81-28,7.81-49.54,23.94-63.54,49.68-.43.79-.57,1.83-1.68,2.07a29.6,29.6,0,0,1-.19-12.2c4.8-23.67,17-42.21,38.21-54.3a58.94,58.94,0,0,1,36.08-7.31c1.91.2,3.84.27,5.72.58a35.28,35.28,0,0,1,13.06,4.55c6.39,4,12.71,8,19.09,12,3.8,2.36,7.6,4.73,11.5,6.91,6.08,3.41,12.47,3.59,19,1.43a36.54,36.54,0,0,0,20.58-16.3c6.91-11.45-.42-31.27-15.5-34.3a22.65,22.65,0,0,0-10,0,121.66,121.66,0,0,0-12.86,3.81c-8.4,3.09-16.7,6.47-25,9.7A96.58,96.58,0,0,1,692,204.85a20.65,20.65,0,0,1-13.57-1.52,63.86,63.86,0,0,1-26.11-22.69,25.65,25.65,0,0,1-2.53-5.15,13.16,13.16,0,0,1,2-13.57,29.72,29.72,0,0,1,15.09-10.55c1.36-.4,2.74-.77,4.43-1.24a9.5,9.5,0,0,0-.71-2.63c-1.16-1.91-2.5-3.71-3.77-5.56-.81-1.18-1.6-2.39-2.45-3.55-5.19-7.12-5.82-15.1-4.17-23.38,1.54-7.69,6.07-13.28,13-16.9a58.21,58.21,0,0,1,18.63-6c4.9-.7,9.86-1,14.79-1.49,1-.09,1.92-.09,2.86-.23a2.37,2.37,0,0,0,1.92-1.9,2,2,0,0,0,.11-.47c0-1,.11-1.92.1-2.87,0-3.65.11-7.3-.08-11.07a12,12,0,0,0-2.08-.44H555.84a7.59,7.59,0,0,0-.59,2c0,5.76-.09,11.52,0,17.28,0,3,1,3.65,3.95,2.91,2.64-.65,5.25-1.43,7.88-2.11a103.69,103.69,0,0,1,19.87-3.13,75.46,75.46,0,0,1,21,1.74,34.23,34.23,0,0,1,11.44,4.8,27,27,0,0,1,10.15,11.85,50,50,0,0,1,4.37,17.6c.47,8.62.82,17.26.88,25.89.12,16.64,0,33.28,0,49.92,0,1.55-.13,3.09-.2,4.65-4.25-.65-14.29-5.22-20.71-9.37-.44-1.54-.91-3.2-1.47-5.15a12.2,12.2,0,0,0-2.35.64c-1.56.81-3.07,1.72-4.58,2.63-10.83,6.55-22.7,9.22-35.22,9.64a64.22,64.22,0,0,1-27.63-4.93,43.59,43.59,0,0,1-15.63-10.88,28.67,28.67,0,0,1-7.48-15.27,25.18,25.18,0,0,1,1.91-14.06,43.57,43.57,0,0,1,9-13A70.48,70.48,0,0,1,566,127.67c10.09-2.28,20.27-2.73,30.43-.19a58.06,58.06,0,0,1,13.83,5.33C611,133.24,611.85,133.63,612.71,134.05ZM837.27,235.93l-5.56.91c-4.42.7-8.86,1.3-13.26,2.13a91.26,91.26,0,0,0-22.67,7.59,21.92,21.92,0,0,0-8,6c-2.44,3.07-3.43,6.55-2,10.32a31.78,31.78,0,0,0,8,12.39,44.32,44.32,0,0,0,20,10.84c13.27,3,26.36,2.13,39.3-1.82a62.92,62.92,0,0,0,24.23-13.22c9.73-8.75,15.57-19.49,15.71-32.74.2-17.92,0-35.83,0-53.75,0-.71.34-1.61-.86-2.21-.78.62-1.61,1.32-2.47,2-5.68,4.26-11.77,7.8-18.8,9.21-12,2.42-24.1,3.24-36.23,1.17-10.26-1.74-19.67-5.59-27.71-12.35-7.56-6.35-13.06-14.08-15-23.88a55.74,55.74,0,0,1-1-10.95c-.08-22.24,0-44.47,0-66.7,0-1.44.06-2.89,0-4.32a18,18,0,0,0-.52-2.57c-4.06-.5-44.73-.77-54.94-.38-.76,0-1.52.19-2.5.31a23.82,23.82,0,0,0-.28,2.48q0,9.6,0,19.19a19.45,19.45,0,0,0,.33,3.82c.38,1.87.68,4.09,2.88,4.59,1.92.44,3.18-1.2,4.33-2.51,1.68-1.93,3.19-4,4.87-5.93,4.55-5.23,9.83-6.24,15.85-2.92a28.86,28.86,0,0,1,12.69,14.53,4.15,4.15,0,0,1-.9,4.81c-3.46,4-6.83,8-10.28,12a6.74,6.74,0,0,1-1.53,1c-.48-2.17-.81-4.06-1.34-5.9a22.75,22.75,0,0,0-3.79-8.22c-2.47-3.1-5.51-3.74-8.88-2-3.79,2-4.35,3.36-2.39,7.22,3.56,7,4.24,14.26,2.86,21.92-1.6,8.83-6.34,14.76-14.94,17.66a69.1,69.1,0,0,1-17.32,3.6c-6.37.44-12.77.61-19.16.86a55.44,55.44,0,0,0-16.45,3,31.77,31.77,0,0,0-15.23,11.2,8.2,8.2,0,0,0,2.32,12.11c3.43,2.24,7.07,3.53,11.34,2.79a39.59,39.59,0,0,0,9.18-2.63c3.81-1.67,7.59-3.41,11.36-5.16,5.22-2.41,10.39-5,15.65-7.28,6.59-2.9,13.32-5.51,20.45-6.73A57.5,57.5,0,0,1,747,166.3c8.81.45,15.88,4.49,21,11.74a71.25,71.25,0,0,1,11.78,26.05c1.3,5.92,2.1,11.95,3.13,17.94.18,1.05.42,2.09.71,3.56,11.59-7.71,23.74-12.41,37.14-12.53C824.57,217.35,835.31,232.19,837.27,235.93Zm131.19-46.56c2.31-.28,6.46-.56,10.53-1.32a82.64,82.64,0,0,0,39.4-18.5,66.94,66.94,0,0,0,6.79-7.37c1.58-1.84,1.3-3.91-.06-5.73a11.33,11.33,0,0,0-3.09-2.93,35.42,35.42,0,0,0-6.43-3.14c-3.91-1.35-7.93-2.41-11.9-3.59a43.55,43.55,0,0,0-20.85-.93c-15.39,2.92-27.94,10.51-37.4,23a34.9,34.9,0,0,0-3.53,6.22c-1.74,3.69-1,6.25,2.26,9.4a15,15,0,0,0,6.8,3.37C956.11,189.26,961.33,189.72,968.46,189.37Zm-413.6.08c2.86-.35,7.18-.62,11.4-1.42,14.7-2.79,28-8.75,39.36-18.58a50.68,50.68,0,0,0,6.47-7c1.8-2.27,1.65-4.29-.21-6.5a13.25,13.25,0,0,0-3.26-2.76,35.52,35.52,0,0,0-5.59-2.7,100.89,100.89,0,0,0-19.4-5.14,28.77,28.77,0,0,0-5.25-.32c-14.66.41-27.28,6-38.26,15.45a42.54,42.54,0,0,0-9,10.54,33,33,0,0,0-2.65,5.6,6.19,6.19,0,0,0,1,5.89,13.2,13.2,0,0,0,6.93,4.84C542,189.16,547.65,189.67,554.86,189.45Zm176.9-72.58c-.14-1-.32-3-.77-5.06a12.53,12.53,0,0,0-9.45-9.82,24.52,24.52,0,0,0-9.49-.91c-15,1.75-26.17,9.49-34,22.25a27.36,27.36,0,0,0-2.36,5.23,18.54,18.54,0,0,0-1.09,8.48c1.49,11.66,12,19,23.35,16.07a50.74,50.74,0,0,0,27.45-17.43C729.59,130.52,731.64,124.59,731.76,116.87Z"/><path class="cls-1" d="M247.47,275.82c-.45-5.22-.3-176.64.13-180.06,3.15-.9,14.75-1.06,20.15-.21.11,1.14.33,2.36.34,3.59,0,7.84,0,15.67,0,23.51,0,1.39.12,2.78.2,4.56,1.64-.47,2.32-1.58,3.16-2.43,5.83-5.92,11.56-12,17.49-17.77a92.15,92.15,0,0,1,16.45-12.38c10.47-6.5,21-6.8,31.75-.72,14.49,8.18,25.66,19.48,32.8,34.57,6.66,14.08,6.45,28.26-.49,42.08a64.19,64.19,0,0,1-35.94,32.16,48.41,48.41,0,0,1-8.79,2.31,29,29,0,0,1-16.43-2.09,53.92,53.92,0,0,1-11.15-6.53A232.17,232.17,0,0,1,275.66,178c-2-1.95-4.14-3.82-6.47-6.08-.94,2.14-.65,3.74-.65,5.27q0,25.91,0,51.82,0,26.15,0,52.29c0,1.71.33,3.48-.42,5.14C264.58,285.47,254.43,280.23,247.47,275.82Zm59.26-93.34a45,45,0,0,0,16.86-3.08c16.69-6.72,28.47-18.48,35.45-35a36.68,36.68,0,0,0,2-6.4,18,18,0,0,0-.13-9,34.65,34.65,0,0,0-8-14,20.08,20.08,0,0,0-16.28-6.64,37.21,37.21,0,0,0-15.13,4.19,105.9,105.9,0,0,0-42.2,38,42.74,42.74,0,0,0-3.9,8.19,10.83,10.83,0,0,0,2.81,12.29,33.45,33.45,0,0,0,4,3.48C289.51,179.62,297.57,182.74,306.73,182.48Z"/><path class="cls-1" d="M179.3,314.62c.37,31-26.16,55.08-54.85,55.14-28,.06-54.68-23.38-54.93-54.7-.23-29.93,25-55,55-55.1C153.26,259.88,179.42,284,179.3,314.62Zm-50,21.37c-.32,2.06-.86,4.57-1.07,7.1a31.26,31.26,0,0,0,0,6.63,2.84,2.84,0,0,0,3.41,2.6,45.08,45.08,0,0,0,14.39-6.14c1.46-.92,1.52-2.77.47-4.26a10.65,10.65,0,0,0-1.94-2.08,69.18,69.18,0,0,0-6.44-4.94c-3.22-2-5.87-4.29-6.68-8.27a5.84,5.84,0,0,0-2-2.54,1.41,1.41,0,0,0-2.24.81,4.1,4.1,0,0,0,.45,3.21A17.62,17.62,0,0,1,129.34,336Zm26.78-24.45c1.1-.18,2.06-.27,3-.48,2.58-.59,3.47-2,2.52-4.56-1.51-4-3.21-8-4.84-11.94a5.68,5.68,0,0,0-.74-1.22,2.87,2.87,0,0,0-4.19-.71,10.69,10.69,0,0,0-2.11,1.92c-1.83,2.2-3.73,4.36-5.34,6.71-2.13,3.1-4.43,5.78-8.39,6.59a6,6,0,0,0-2.56,1.94,1.33,1.33,0,0,0,1,2.13,8,8,0,0,0,3.66-.6c3.31-1.91,6.66-1.65,10.18-.91C150.88,311,153.58,311.19,156.12,311.54Zm-62.95,6.73c-1.46.16-2.58.2-3.67.41-2.37.46-3.21,1.86-2.34,4.2,1.38,3.74,2.86,7.44,4.41,11.11,1.9,4.47,4.18,4.92,7.36,1.31,2.31-2.63,4.39-5.48,6.44-8.32,1.64-2.26,3.46-4.11,6.34-4.74a6.84,6.84,0,0,0,2.9-1.53,2.32,2.32,0,0,0,.64-2.06c-.18-.51-1.17-.88-1.86-1a2.94,2.94,0,0,0-1.84.37c-4.19,2.4-8.57,2-13,1C96.65,318.66,94.74,318.49,93.17,318.27Zm22.65-7.61a9.06,9.06,0,0,0-1.48-2.05,7.24,7.24,0,0,0-2.59-1.17c-2.84-.66-4.72-2.47-6.35-4.76-1.94-2.74-4-5.38-6.11-8a11.13,11.13,0,0,0-2.47-2.22,2.63,2.63,0,0,0-3.5.4,6.67,6.67,0,0,0-1.33,2c-1.62,3.82-3.25,7.64-4.72,11.53-1.13,3,.06,4.84,3.14,4.73,3.66-.12,7.32-.55,11-1,3.22-.38,6.32-.61,9.32,1.14a8,8,0,0,0,3.66.59C114.78,311.85,115.23,311.16,115.82,310.66Zm4.86-4.8c1.5-1.74.85-3.37.15-5a15.44,15.44,0,0,1-.86-10.31,29.36,29.36,0,0,0,.9-5.19,21.12,21.12,0,0,0-.16-5.21c-.44-2.41-2-3.36-4.19-2.52-4.33,1.64-8.64,3.37-12.85,5.3-2.55,1.16-2.83,3.45-.71,5.38a91.16,91.16,0,0,0,7.79,6.36c3,2.2,5.79,4.47,6.58,8.44A3.25,3.25,0,0,0,120.68,305.86Zm0,18a2.66,2.66,0,0,0-2.79,1.5,7,7,0,0,0-.9,2.21c-.64,2.84-2.43,4.73-4.73,6.36-2.6,1.85-5.07,3.89-7.56,5.89a17.71,17.71,0,0,0-2.43,2.31,2.89,2.89,0,0,0,.54,4.23,5.63,5.63,0,0,0,1.22.75q5.5,2.35,11,4.68a6.71,6.71,0,0,0,1.36.43c2.86.52,4.75-1,4.55-3.95a95.26,95.26,0,0,0-1.15-9.51c-.62-3.7-1-7.24,1.36-10.59A3.11,3.11,0,0,0,120.68,323.82Zm7.23-17.1a9.81,9.81,0,0,0,4.05-5.07,11.47,11.47,0,0,1,4.71-5.87c1.06-.72,2.12-1.45,3.11-2.26,2.1-1.72,4.24-3.4,6.21-5.27s1.72-4-.53-5.1c-4-1.95-8.12-3.79-12.28-5.41-3.05-1.19-5.18.29-5,3.49a110.63,110.63,0,0,0,1.17,11.91,13.43,13.43,0,0,1-.63,6.58,32.83,32.83,0,0,0-1.25,4.1C127.3,304.49,127.65,305.26,127.91,306.72ZM161.84,322c0-2.22-1.14-3.58-3-3.52-2.69.09-5.39.39-8.07.74-4.78.62-9.51,1.19-14-1.3a4.89,4.89,0,0,0-2.31-.28,1.35,1.35,0,0,0-1,2.12,5.77,5.77,0,0,0,2.13,1.76,20,20,0,0,1,9.25,7.27c1.4,1.93,2.91,3.79,4.41,5.65a18.09,18.09,0,0,0,2.26,2.45,2.9,2.9,0,0,0,4.51-.76,7.7,7.7,0,0,0,.65-1.28c1.5-3.51,3-7,4.47-10.55A17.92,17.92,0,0,0,161.84,322Z"/><path class="cls-1" d="M1066,95.75c4.19-.68,17-.78,22.25-.22a14.8,14.8,0,0,1,.51,2.57c.06,3.2,0,6.4,0,9.59,0,.9.17,1.8.25,2.59,1.25.42,1.76-.35,2.35-.81,2-1.57,4-3.18,6-4.79a75.5,75.5,0,0,1,16.29-10.05c13.27-6.07,26.63-6.13,39.9-.09,11.14,5.06,19.52,13.23,25.55,23.8a65.94,65.94,0,0,1,8.08,43c-2.08,14.92-8.09,28.17-16.94,40.22a75.53,75.53,0,0,1-8.09,9.74L1136.8,195a19.67,19.67,0,0,1,1.69-2.51c2.18-2.34,4.44-4.6,6.65-6.91,2.76-2.89,5.6-5.71,8.23-8.71,10-11.39,15-24.75,15.38-39.86.13-5,.24-9.94-1-14.78a47.05,47.05,0,0,0-2.64-7.68,21.66,21.66,0,0,0-13.21-11.82c-8.62-2.9-17.26-3-25.78.49a52.1,52.1,0,0,0-20.78,15.8c-8.68,10.65-13.74,23-16.33,36.35a94.37,94.37,0,0,0-1.31,17.67c0,10.4,0,20.79,0,31.19,0,1.55-.11,3.1-.16,4.44a3.76,3.76,0,0,1-.7.44.75.75,0,0,1-.47-.05c-2-1-4-2-6-3-4.78-2.56-9.53-5.16-14.33-7.76Z"/><path class="cls-1" d="M423.79,210.14c-9-4.61-17.08-9-25-13.25-.52-4.69-.49-96.73,0-100.88,4.12-1.1,8.42-.49,12.65-.5s8.26-.52,12.66.45c.15,2.92.3,5.73.47,9a29.75,29.75,0,0,0,3.15-1.49A99.72,99.72,0,0,1,448,93.58a49.36,49.36,0,0,1,14.48-3.11c15.16-.63,27.81,4.82,37.7,16.38a22.53,22.53,0,0,1,5,10.75,20.49,20.49,0,0,1-3.36,16,40.62,40.62,0,0,1-3.22,4.17,85.2,85.2,0,0,1-14.29,12.73c-1.43,1-3,1.83-4.63,2.85-3.79-3.38-6.69-7.39-9.94-11.07s-6.43-7.48-10-11.63c1.71-.47,2.87-.85,4.07-1.12a31.39,31.39,0,0,0,17.86-11.34,21.06,21.06,0,0,0,3.88-7.63,7.23,7.23,0,0,0-1.38-6.74c-4.7-6.13-11-7.94-18.32-6.53a31.46,31.46,0,0,0-9.75,3.91A62.57,62.57,0,0,0,440.63,114c-6.95,7.88-12.45,16.61-15.13,26.91A48.8,48.8,0,0,0,424,153.2q0,25.67,0,51.32C424,206.1,423.87,207.68,423.79,210.14Z"/><path class="cls-1" d="M9.68,169a8.76,8.76,0,0,1,1.12-2.24A31.21,31.21,0,0,1,14.1,164L87.17,107.9Q98,99.57,108.87,91.26c1.37-1.05,2.67-2.2,4.31-3.56a15,15,0,0,0-2.2-1.48c-6.74-2.72-13.83-3.88-21-4.6-3-.3-6.06-.48-9.09-.68a59,59,0,0,0-18.51,2c-3.72.94-7.4,2-11.11,3-1.15.3-2.34.9-3.9,0,1.16-1.38,2.69-1.9,3.94-2.76s2.59-1.33,2.85-2.94c-.92-1.38-2.19-1.28-3.47-1-3.3.59-6.59,1.31-9.91,1.79a59.13,59.13,0,0,1-6.66.47,1.32,1.32,0,0,1-1.58-1.17,5,5,0,0,1,1.34-.77c2.17-.5,4.36-1,6.57-1.35,9.92-1.7,19.84-3.43,29.79-5a68.57,68.57,0,0,1,8.62-.36c2.07,0,4.15,0,6.23,0a5.8,5.8,0,0,0,4.47-1.6c-1.57-3-4.31-3.91-7.17-4.06a44.64,44.64,0,0,0-10,.42c-7.87,1.38-15.68,3.1-23.5,4.73a115.72,115.72,0,0,1-23.3,2.71A3.9,3.9,0,0,1,23,74.25c1.18-.33,2.34-.75,3.54-1,9.61-1.91,18.77-5.19,27.82-8.86,6.36-2.59,12.68-5.29,19.37-7a81.16,81.16,0,0,1,31.86-2c5.85.81,11.65,2,17.48,2.93a30.4,30.4,0,0,1,13.11,5.59c4.66,3.41,5,2.92,9.12-.29,2.15-1.66,4.41-3.18,6.68-4.67a11,11,0,0,1,2.65-1.09,6.71,6.71,0,0,1,1.75,0c-.28.78-.33,1.45-.68,1.8a55.46,55.46,0,0,1-4.9,4.56Q127.91,82,105,99.77,70.45,126.5,35.89,153.18c-1.48,1.15-2.94,2.35-4.6,3.67,2.4.66,2.4.65,3.81.36,5.16-1.08,10.29-2.35,15.49-3.17a109.29,109.29,0,0,1,53,4.23,58.08,58.08,0,0,1,12.56,5.9A46.15,46.15,0,0,1,136,190.35a34.46,34.46,0,0,1,.19,19.41c-2.29,8.65-7.6,15-15.18,19.56a80.32,80.32,0,0,1-20.25,8.58,88.13,88.13,0,0,1-19.37,3.16c-3.67.16-7.34.46-11,.59a38.61,38.61,0,0,1-7.65-.39c6.17-.77,12.34-1.5,18.5-2.3A93.19,93.19,0,0,0,99,235.11a53.57,53.57,0,0,0,13.65-6.89c10.44-7.28,14.21-17.28,12.21-29.64a41.25,41.25,0,0,0-17.13-27.82,63.08,63.08,0,0,0-28.27-11.21c-13.21-2-26.44-2.11-39.6.64a102.9,102.9,0,0,0-19.2,6,39.55,39.55,0,0,0-5.48,2.94C13.52,170.11,11.93,170.3,9.68,169ZM115.87,84.6c4.24-1.68,7.55-3.89,13.22-8.81,1.63-1.42,3.44-2.7,4.47-4.88a21.26,21.26,0,0,0-15.32,5.5,12.64,12.64,0,0,0-1.88,2.13C115.2,80.31,114.48,82.19,115.87,84.6Z"/><path class="cls-1" d="M0,363.2C2,346,8.57,330.49,18.63,316.53c18.8-26.1,41.34-48.25,69.22-64.68,14.07-8.29,28.41-16,43.68-21.82a52.48,52.48,0,0,1,22.53-3.66,48.35,48.35,0,0,1,7.58,1.06c7.54,1.75,12.3,6.52,14.25,14a36.07,36.07,0,0,1,1,7.1c.17,3,.06,6.07,0,9.1,0,.75.21,1.62-.59,2.15-1.12.36-1.35-.58-1.79-1.16a66.42,66.42,0,0,0-4.87-6.48,30.7,30.7,0,0,0-20.86-9.52,70.84,70.84,0,0,0-26.44,3.62,168.23,168.23,0,0,0-31,13.88c-29.85,16.87-54.85,39-73.94,67.67-7,10.57-13.15,21.54-16.29,34-.13.53-.72.95-1.1,1.43Z"/><path class="cls-1" d="M1044.34,290.84c-7.52,0-13.76-1.17-19.56-4.12-7.72-3.93-12.9-10.09-14.26-18.69-1.76-11.12,1.14-21,9.86-28.54,5.69-4.93,11.88-9.17,19-11.77a18.35,18.35,0,0,1,4.13-1.13c8-.85,15.65.14,22.79,3.9,8,4.23,13.52,10.53,15.35,19.67a22.48,22.48,0,0,1-.14,10,40.58,40.58,0,0,1-14.6,23A35.27,35.27,0,0,1,1044.34,290.84ZM1041.89,234c-5.8-.21-8.11.53-11.44,3.46a27.25,27.25,0,0,0-3.6,3.84c-7.95,10.45-6.65,24.69,3.13,33.84a31.24,31.24,0,0,0,21.79,8.51c7.69.06,13.8-4.15,16.64-11.46,4.14-10.68,2.26-26-11.85-33.93A33,33,0,0,0,1041.89,234Z"/><path class="cls-1" d="M1195.21,290.82a42.33,42.33,0,0,1-12.89-1.86c-16.08-4.81-23.81-19.14-19-35.76a26.57,26.57,0,0,1,7.34-12.17,70.73,70.73,0,0,1,16.82-11.73,29.63,29.63,0,0,1,16.27-2.88,36,36,0,0,1,18.7,6.65c7.7,5.67,11.84,13.22,11.56,22.95a16.88,16.88,0,0,1-.35,3.33c-2.33,10-7.38,18.29-15.7,24.43A35.9,35.9,0,0,1,1195.21,290.82Zm-1-56.84c-6-.2-8,.37-11.21,3a26.74,26.74,0,0,0-4,4.09c-7.82,10-7.14,23.49,1.71,32.83a30.79,30.79,0,0,0,23.17,9.75c7.71,0,13.74-4.28,16.54-11.61,4.56-11.9,1-27-12.48-34.07A33.42,33.42,0,0,0,1194.19,234Z"/><path class="cls-1" d="M938.36,235.33c.18-.55.18-.94.37-1.09,7-5.7,14.89-9.35,24.07-9.44a44.78,44.78,0,0,1,20.4,4.59c5.43,2.65,8.53,7,9.8,12.83,2,9.14-.29,17.08-6.62,23.9-4.71,5.09-10.3,9.07-16.1,12.8-1.13.73-2.61,1.11-3.38,3a81.3,81.3,0,0,0,15.36-.56,50.64,50.64,0,0,0,15.25-4.17c-.67,3.1-2,5.09-2.89,7.2s-1.93,4-2.83,5.87c-.33.18-.47.27-.61.33a1.28,1.28,0,0,1-.45.16l-52.27.11c-.63,0-1.26-.09-2.23-.16a9.88,9.88,0,0,1,.3-2.25c.53-1.33,1.22-2.6,1.84-3.89,1.56-1.07,3.38-1,5.08-1.25a66.89,66.89,0,0,0,17.41-5.17,40.71,40.71,0,0,0,13.23-9.34,21,21,0,0,0,5.94-13.3,16.67,16.67,0,0,0-6-14.5,27.16,27.16,0,0,0-12.44-5.85,49,49,0,0,0-17.17-.41A29.06,29.06,0,0,1,938.36,235.33Z"/><path class="cls-1" d="M1118.11,282c11.11.14,21.09-.42,30.6-4.5,0,2.69-2,7.47-5.61,13.3h-52.53a23.53,23.53,0,0,1-2.42-.27c0-2.56,1.45-4.3,2.34-6.42,1.65-.29,3.2-.62,4.76-.84a66.21,66.21,0,0,0,17.43-5.14,40.59,40.59,0,0,0,13.26-9.31,21.58,21.58,0,0,0,5.6-10.43c1.65-7.73-.87-14.26-7.37-18.84a30.67,30.67,0,0,0-16.7-5.25,102.62,102.62,0,0,0-11.48.49c-1.88.12-3.75.48-5.7.75.1-.6,0-1,.21-1.16,6.31-5.19,13.34-8.79,21.62-9.42a42.83,42.83,0,0,1,24.49,5.25,16.44,16.44,0,0,1,8,10.87c2.32,9,.59,17.11-5.58,24.16-4.47,5.11-9.88,9.07-15.5,12.78A26.36,26.36,0,0,0,1118.11,282Z"/><path class="cls-1" d="M1223.23,27.47a27.68,27.68,0,0,1,55.35.08c-.07,15.31-11.55,27.75-27.74,27.66C1232.36,55.09,1222.87,40.17,1223.23,27.47Zm49.43.18c.18-9.85-7.09-21.28-21.7-21.56a21.52,21.52,0,1,0,21.7,21.56Z"/><path class="cls-1" d="M113.52,217.21a12.32,12.32,0,0,1-24.63-.15c0-6.7,6.08-12.65,12.64-12.42A12.75,12.75,0,0,1,113.52,217.21Z"/><path class="cls-1" d="M267.6,41.46c-1.89.81-3.37.21-4.6-1.34q-3.57-4.5-7.15-9c-1.39-1.75-2.76-3.51-4.18-5.23A26.28,26.28,0,0,0,249.73,24c-.84,2.22-.47,4.11-.53,5.94s0,3.83,0,5.74.27,3.8-.45,5.85h-3.26a4.25,4.25,0,0,1-.61-1.31c-.42-4.78-.14-22.22.38-25.34,2.07-1.13,3.5-.2,4.81,1.46q5.17,6.59,10.42,13.1c.67.83,1.42,1.59,2.43,2.72.88-1.7.55-3.12.6-4.47s0-2.87,0-4.3,0-2.87,0-4.31.15-2.8.25-4.44h3.78C268.35,18.68,268.35,37.7,267.6,41.46Z"/><path class="cls-1" d="M379.92,14.25l3.78-.38c.32.64.68,1.05.69,1.47.05,2.7,0,5.39,0,8.46,1.43-.41,2.46-.72,3.49-1,5.11-1.3,8.69,1.12,8.93,6.27a98.52,98.52,0,0,1-.11,12.6H392.8a4.14,4.14,0,0,1-.54-1.32c-.07-3.19-.08-6.38-.11-9.56,0-1.78.05-3.65-1.95-4.49-1.85-.78-3.41,0-4.82,1.19a8.85,8.85,0,0,0-.7.8c-.59,4.31.24,8.79-.51,13.41h-4c-.85-3.09-.38-6.12-.45-9.1s-.05-6.06,0-9.09A91,91,0,0,1,379.92,14.25Z"/><path class="cls-1" d="M387,355.84c.05-4.25.11-8.5.16-12.66,2.77-.84,3.44-.61,3.46,1.33q.11,8.87,0,17.75a2.44,2.44,0,0,1-1,1.9,2.6,2.6,0,0,1-2.18-.46,13.94,13.94,0,0,1-2.23-2.48c-2.28-2.88-4.52-5.8-6.83-8.66-.55-.68-.9-1.73-2.42-1.58-.49,2.08-.16,4.29-.22,6.46s0,4.12,0,5.77c-1,1.33-2.06,1.41-2.83.8A2.91,2.91,0,0,1,372,362c0-5.92,0-11.84,0-17.75a6,6,0,0,1,.32-1.3,2.75,2.75,0,0,1,3.85.87c2.28,2.89,4.54,5.78,6.83,8.67,1,1.23,2,2.44,3,3.66Z"/><path class="cls-1" d="M448.06,353.32c0,6.58-4.55,11.25-11,11.3a11.31,11.31,0,1,1,0-22.61C443.49,342.06,448.07,346.78,448.06,353.32Zm-4.18-.13a14.94,14.94,0,0,0-.12-1.57,6.65,6.65,0,0,0-6.93-6c-3.66.08-6.21,2.45-6.63,6.26a13.12,13.12,0,0,0,0,2.87c.47,4,3.13,6.3,7.15,6.14S443.8,358,443.88,353.19Z"/><path class="cls-1" d="M1065.1,353.2c.05,6.61-4.41,11.31-10.85,11.42-6.64.12-11.42-4.67-11.38-11.4A10.86,10.86,0,0,1,1054,342C1060.42,342,1065.05,346.65,1065.1,353.2Zm-11.22-7.55a6.46,6.46,0,0,0-6.36,4.76,8.86,8.86,0,0,0-.2,5.15c.92,3.58,3.2,5.4,6.82,5.36a6.37,6.37,0,0,0,6.52-5.14,9.12,9.12,0,0,0-.24-5.61A6.48,6.48,0,0,0,1053.88,345.65Z"/><path class="cls-1" d="M870.41,364.62a11.31,11.31,0,1,1,11-11.41A10.91,10.91,0,0,1,870.41,364.62Zm6.6-11.28c0-2.89-.74-5.41-3.49-6.86a6.75,6.75,0,0,0-7.29.36c-2.89,2-3.23,5-2.84,8.14a6.37,6.37,0,0,0,4.51,5.65,4.66,4.66,0,0,0,.93.21C873.71,361.61,877,358.59,877,353.34Z"/><path class="cls-1" d="M579.35,342.57a41.32,41.32,0,0,1,11,.13c4.69.86,7.87,5,8.08,10,.22,5.39-2.54,9.69-7.31,11a23.84,23.84,0,0,1-5.2.69c-2,.09-4.1,0-6.31-.07-1.07-2.48-.53-4.89-.61-7.21s-.07-4.79,0-7.19S578.73,345.21,579.35,342.57Zm3.69,3.31c.15,5.19-.28,9.89.3,14.77,3.71.48,7.26,1,9.57-2.53a8.36,8.36,0,0,0,.1-9.45C590.79,345.1,587.22,345.45,583,345.88Z"/><path class="cls-1" d="M832.26,342.42c2.91,0,5.78-.07,8.65,0a10.37,10.37,0,0,1,10,10.22c.19,6-3,10.27-8.68,11.43a16.19,16.19,0,0,1-2.85.34c-2.37.05-4.75,0-7.24,0-1.15-2.53-.6-4.94-.68-7.26-.09-2.55-.11-5.12,0-7.67C831.59,347.19,830.92,344.77,832.26,342.42Zm3.9,18.29c3.48.46,7.05.87,9.3-2.69a8.4,8.4,0,0,0,0-9.46c-2.28-3.52-5.83-3.08-9.26-2.73A43.47,43.47,0,0,0,836.16,360.71Z"/><path class="cls-1" d="M884.78,363.84c0-7.1-.16-13.9.11-21a21.88,21.88,0,0,1,11,.1,5.93,5.93,0,0,1,3,9.33,22,22,0,0,1-2.93,2.77c1.85,2.88,3.63,5.64,5.41,8.43-2.85,1.25-3.58,1.18-5-.74s-2.47-3.71-3.71-5.56a2.34,2.34,0,0,0-3.09-1c-1,1.6-.4,3.55-.52,5.38C888.82,364.31,888.55,364.52,884.78,363.84Zm4.44-11.37a6,6,0,0,0,4.72-.25,3.49,3.49,0,0,0,2-3.51,3.18,3.18,0,0,0-2.62-3c-1.35-.26-2.81-.67-4.09.5Z"/><path class="cls-1" d="M571.16,342.7H574c.6,3.95.65,16.62.1,21.22-1.49.87-2.69.27-3.66-.93-1.91-2.35-3.75-4.76-5.63-7.13-1.38-1.73-2.78-3.44-4.54-5.62a11.64,11.64,0,0,0-.73,2.48c-.07,2.87,0,5.75-.07,8.62a5,5,0,0,1-.43,2.3c-.22.4-1,.6-1.61.63a1.9,1.9,0,0,1-1.15-.67,1.39,1.39,0,0,1-.25-.9c0-6.52,0-13.05,0-19.64,1.63-.93,2.87-.74,3.91.57,2.29,2.86,4.54,5.76,6.83,8.63,1,1.22,2,2.4,2.93,3.53,1.27-.43,1.09-1.32,1.1-2.06,0-2.55,0-5.1,0-7.65C570.84,345,571,343.91,571.16,342.7Z"/><path class="cls-1" d="M1086.63,364c-1.6.78-2.74,0-3.71-1.18-2.47-3.12-4.92-6.27-7.41-9.38-.77-1-1.64-1.88-2.81-3.2a16.71,16.71,0,0,0-.55,2.68c-.06,2.71,0,5.42-.05,8.14a6,6,0,0,1-.33,2.33,1.9,1.9,0,0,1-1.45.88,2.21,2.21,0,0,1-1.46-.88,2.37,2.37,0,0,1-.25-1.38q0-9.09.07-18.18a3.43,3.43,0,0,1,.32-.93c1.5-.91,2.69-.38,3.69.87,2.47,3.13,4.92,6.27,7.41,9.39.75.94,1.61,1.79,2.73,3,.82-1.79.56-3.21.6-4.57s0-2.88,0-4.31.13-2.82.2-4.22a6.28,6.28,0,0,1,1.45-.58,5.48,5.48,0,0,1,1.35.15C1087.35,343.92,1087.45,359,1086.63,364Z"/><path class="cls-1" d="M948.13,342.88a2.94,2.94,0,0,1,4,1.06q3.52,4.53,7.1,9c.78,1,1.6,1.93,2.31,2.8,1.39-.21,1.24-1.12,1.25-1.84.05-2.39,0-4.79.05-7.18,0-.95,0-1.91.12-2.86a1.43,1.43,0,0,1,1.59-1.39c.89,0,1.55.31,1.66,1.29a15.15,15.15,0,0,1,.12,1.9q0,8.15,0,16.27a13.16,13.16,0,0,1-.2,1.72,2.1,2.1,0,0,1-3.13-.06,15.44,15.44,0,0,1-1.86-2.16c-2.18-2.76-4.33-5.53-6.52-8.27-.67-.84-1.42-1.61-2.09-2.36-1.22.48-1,1.38-1,2.11,0,3,0,6.06-.08,9.09a2.79,2.79,0,0,1-.87,2c-.51.37-1.43.16-2.14.2C947.69,360.63,947.54,349.16,948.13,342.88Z"/><path class="cls-1" d="M291.81,41V19.6c-2.61-1.42-5.31-.22-8-1.17-.1-1-.2-2-.29-2.86.48-.37.71-.71,1-.73,6.68-.44,13.36-.2,19.81-.16,1.31,1.38,1.24,2.51.26,3.94l-7.16.46a25.1,25.1,0,0,0-.42,3.23c-.05,5,0,9.92,0,14.88,0,1.41-.14,2.81-.23,4.4C295,42,293.53,42.43,291.81,41Z"/><path class="cls-1" d="M321.8,18.83c-2.28,0-4,.05-5.78,0s-2.45-.68-2.4-2.2c0-1.33.62-2,2.14-2,6.37,0,12.75-.16,19.36.09.09,1.31.17,2.35.27,3.74l-7.74.68c-.89,3.76-.34,7.44-.45,11.07s-.08,7.33-.1,10.79c-1.52,1.33-2.93,1-4.51.68a6.09,6.09,0,0,1-.53-1.68c-.05-5.28,0-10.55-.07-15.83C322,22.62,321.88,21.05,321.8,18.83Z"/><path class="cls-1" d="M757,363.93c-2.54.88-4.16.46-5.37-1.46-1.11-1.75-2.28-3.47-3.43-5.19a2.47,2.47,0,0,0-3.56-.9c-.13,2.34-.27,4.83-.42,7.62l-3,.29c-.32-.5-.6-.76-.62-1-.51-5.95-.27-17.26.46-20.71a37.18,37.18,0,0,1,8.88.05c2.53.35,4.51,1.54,5.32,4.17a6.19,6.19,0,0,1-1.74,6.55c-.56.56-1.18,1-2,1.72C752.89,358.07,755.28,360.49,757,363.93Zm-12.37-11.56c3,.42,3.45.42,4.46,0a3.51,3.51,0,0,0,2.31-3.7,3.16,3.16,0,0,0-3-3.09,24.85,24.85,0,0,0-3.78.15Z"/><path class="cls-1" d="M921.76,345.13c-.37.64-.76,1.3-1.28,2.21-1.28-.43-2.44-.84-3.61-1.2-3.6-1.1-6.83-.22-8.62,2.32a9,9,0,0,0,.07,10,5.83,5.83,0,0,0,3.92,2.53,8.14,8.14,0,0,0,5.78-.78V357a19.29,19.29,0,0,1-2.62-1.2,1.48,1.48,0,0,1-.36-1.27,1.45,1.45,0,0,1,.82-1,15,15,0,0,1,5.89,0,32,32,0,0,1,.06,8.68,13.11,13.11,0,0,1-10.1,2.19c-6.21-1-9.92-6.53-8.93-13.17.8-5.36,4.8-9.44,12.06-9.22C917.59,342.13,919.08,342.88,921.76,345.13Z"/><path class="cls-1" d="M722.68,363.83c0-7.07-.16-13.89.09-21a18.77,18.77,0,0,1,2.94-.48c3.19,0,6.39,0,9.58.17.41,0,1,.71,1.15,1.2a1.26,1.26,0,0,1-1.14,1.71c-.94.11-1.91.12-2.86.14-1.58,0-3.17,0-4.76,0-1.13,1.87-.75,3.56-.61,5.58l3.75.38a20.17,20.17,0,0,1,2.81.35,1.32,1.32,0,0,1,.74,1.06,2.29,2.29,0,0,1-.79,1.53,3.86,3.86,0,0,1-1.83.32c-1.42.09-2.84.13-4.24.19-1,1.82-.53,3.54-.45,5.37,3,1.23,6.11,0,9.21,1v2.56A41.11,41.11,0,0,1,722.68,363.83Z"/><path class="cls-1" d="M827.32,345.6H819c-1.28,1.8-.83,3.51-.7,5.51.94.16,1.82.36,2.72.44,1.11.09,2.24,0,3.35.15a1.33,1.33,0,0,1,1.24,1.68,2.26,2.26,0,0,1-1.15,1.3,5.57,5.57,0,0,1-1.89.16c-1.27.07-2.53.12-3.82.18-1,1.75-.57,3.48-.43,5.34,2.86,1.3,6,.07,9.15.95v2.91a71,71,0,0,1-12.8,0c-1-3.28-1.19-15.11-.36-21.37a15.34,15.34,0,0,1,2.56-.44q4.54-.08,9.11,0C827.46,342.46,827.61,342.83,827.32,345.6Z"/><path class="cls-1" d="M398.89,23c4.28-1,4.52-.91,5.87,2.16,1.28,2.91,2.49,5.84,3.8,8.89,1.64-1.11,1.72-2.8,2.36-4.15.75-1.58,1.26-3.27,1.95-4.88,1.14-2.69,1.16-2.68,5-2.24a9.37,9.37,0,0,1-.37,2.17Q413.18,35,408.74,45.08c-1.33,3-1.38,3-5.21,2.44.16-2.62,2.15-4.55,2.74-7.29C404.12,34.55,401.18,28.92,398.89,23Z"/><path class="cls-1" d="M1003.4,342.56h4.11c2.87,6.91,5.58,13.82,8.18,20.77-3.32,1.45-3.32,1.45-5.84-4.09a30.63,30.63,0,0,0-8.84-.15c-.48,1-.93,2-1.4,3-1,2.06-1,2.06-4.14,1.68C995.84,360.58,999,352.16,1003.4,342.56Zm1.93,4.47c-1.37,3.44-2.72,5.74-2.76,8.61a10.4,10.4,0,0,0,5.72,0C1008.06,352.76,1006.83,350.45,1005.33,347Z"/><path class="cls-1" d="M532.22,363.48c2.73-6.94,5.45-13.84,8.2-20.8a12.1,12.1,0,0,1,3-.2,3.37,3.37,0,0,1,1.82,1.26,8.5,8.5,0,0,1,1,2.17c1.93,4.88,3.87,9.75,5.78,14.64.39,1,.65,2.06,1,3.11-3.36.63-3.5.6-4.45-1.4-.47-1-.89-2-1.41-3.17h-8.77c-.5,1.08-1,2.22-1.54,3.33C535.88,364.24,535.34,364.38,532.22,363.48Zm11-15.22c-1.07-.32-1.34.26-1.51.87-.62,2.16-2.2,4.11-1.71,6.68h5.46C545.52,352.83,544,350.58,543.23,348.26Z"/><path class="cls-1" d="M924.08,363.59c2.85-7.21,5.53-14,8.27-20.94h4.39c2.88,7,5.65,13.85,8.18,20.85-3,.87-3.56.75-4.46-1.09-.49-1-.87-2-1.38-3.23a32.22,32.22,0,0,0-9,0c-.48,1.09-.89,2.11-1.36,3.1C927.78,364.26,927.61,364.31,924.08,363.59Zm13.51-7.77a28.48,28.48,0,0,0-2.91-8.43,20.25,20.25,0,0,0-3,8.43Z"/><path class="cls-1" d="M354.76,359c-.5,1.09-1,2.09-1.43,3.08-1,2.11-1,2.11-4.13,1.74.23-2.92,3.57-12,7.72-20.9a4.15,4.15,0,0,1,1.25-.45c.93,0,1.87.08,2.67.12,2.4,4.34,7.53,17.63,8.15,21-2.63.73-3.1.65-3.89-.92-.5-1-.88-2-1.35-3.15a3.9,3.9,0,0,0-1.24-.5C360,359,357.43,359,354.76,359Zm4.11-11.47c-1.23,2.81-2.53,5.27-2.72,8.34,2.16.12,4,.42,6-.33C361.39,352.71,360.72,350,358.87,347.51Z"/><path class="cls-1" d="M507.69,353.55a47.37,47.37,0,0,1-1.55,6.45,7.3,7.3,0,0,1-13.48.16,17.09,17.09,0,0,1-.09-13.51,6.91,6.91,0,0,1,6.71-4.58,7.16,7.16,0,0,1,6.85,4.4A21.52,21.52,0,0,1,507.69,353.55Zm-3.91-.41c-.45-1.93-.79-4-1.43-5.89a2.94,2.94,0,0,0-3-1.9,3.34,3.34,0,0,0-3,2,2.49,2.49,0,0,0-.22.43,17.82,17.82,0,0,0,.08,11.25,3.37,3.37,0,0,0,6.45-.13C503.11,357.07,503.37,355.18,503.78,353.14Z"/><path class="cls-1" d="M490,353.11a48.84,48.84,0,0,1-1.47,6.53,7.35,7.35,0,0,1-13.89,0,17.37,17.37,0,0,1,0-12.65,7.36,7.36,0,0,1,13.91,0A54.34,54.34,0,0,1,490,353.11Zm-12.88.3c.49,2,.84,4.07,1.48,6a3,3,0,0,0,3,1.95,3.16,3.16,0,0,0,3-2,15.15,15.15,0,0,0,0-12.08,3.08,3.08,0,0,0-3.06-1.91,2.93,2.93,0,0,0-3,2C477.94,349.27,477.61,351.31,477.14,353.41Z"/><path class="cls-1" d="M623.79,353.46c.32-2.48.49-4.85,1.58-7.07a7.09,7.09,0,0,1,6.41-4.31,6.84,6.84,0,0,1,6.92,4.22,16.91,16.91,0,0,1,0,13.94,7.28,7.28,0,0,1-13.45-.32A51.41,51.41,0,0,1,623.79,353.46Zm12.7,0c-.28-3.19-.67-5.14-1.58-6.52a3.28,3.28,0,0,0-5.58-.08,5.32,5.32,0,0,0-.83,1.71,21.72,21.72,0,0,0,0,9.46,6,6,0,0,0,.56,1.31,3.25,3.25,0,0,0,3,2,2.94,2.94,0,0,0,3-1.94C635.67,357.47,636,355.44,636.49,353.45Z"/><path class="cls-1" d="M660.93,348c-.29-2,.88-3.29,2.26-4.41a7.5,7.5,0,0,1,4.94-1.52c3.48,0,6,2.08,6.52,5.2a7.07,7.07,0,0,1-1.31,5.44,36,36,0,0,1-2.76,3.3c-1.16,1.3-2.38,2.55-3.49,3.73.31,1.33,1.23,1.05,1.95,1.08,1.28,0,2.57-.08,3.83.08a3,3,0,0,1,2,1c.33.51.07,1.42.07,2.12-4.67.74-11.08.67-14.42-.12-.63-1-.11-1.84.55-2.54,1.75-1.85,3.58-3.64,5.35-5.48a24.06,24.06,0,0,0,2.87-3.2,11.39,11.39,0,0,0,1.49-3.47,2.93,2.93,0,0,0-1.23-3.36,3.6,3.6,0,0,0-4,.3c-.58.52-.94,1.29-1.5,1.84A2.14,2.14,0,0,1,660.93,348Z"/><path class="cls-1" d="M428.64,39.75c.5-2,1.41-2.6,2.95-2.2a24,24,0,0,0,4.14.92,2.11,2.11,0,0,0,2.43-1.8,2,2,0,0,0-1.48-2.19c-1.32-.54-2.69-1-4-1.49-2.28-.87-3.76-2.42-3.82-5-.07-2.37,1.5-4.39,4.1-5.31a8.9,8.9,0,0,1,9.31,1.63c-1.09,2.3-1.08,2.29-2.63,2a26.58,26.58,0,0,0-3.74-.64,2.23,2.23,0,0,0-2.28,1.42c-.31.73.3,1.77,1.34,2.25.72.34,1.49.59,2.23.87s1.53.48,2.25.81c2,.91,3.51,2.23,3.47,4.67a5.58,5.58,0,0,1-3.39,5.35A9.94,9.94,0,0,1,428.64,39.75Z"/><path class="cls-1" d="M987.12,345.4c-.7.15-1.48.1-1.89.47a4.38,4.38,0,0,0-1.54,2.18c-.11.57.52,1.49,1.07,1.93a10.45,10.45,0,0,0,2.56,1.23c.88.37,1.82.61,2.67,1a6.22,6.22,0,0,1,.85,10.9,9.33,9.33,0,0,1-11.08-.76,2.07,2.07,0,0,1-.24-1.7,1.46,1.46,0,0,1,1.84-1.1c.75.19,1.4.85,2.16,1a16.86,16.86,0,0,0,4.19.27,2.25,2.25,0,0,0,1.92-2.4,4.07,4.07,0,0,0-1.19-2.41,5.69,5.69,0,0,0-2.12-1c-1-.41-2.13-.69-3.14-1.15A6,6,0,0,1,982,343.64a8.8,8.8,0,0,1,10.25.14,1.81,1.81,0,0,1,.27,1.66c-.2.48-.95,1.13-1.36,1.06A34.7,34.7,0,0,1,987.12,345.4Z"/><path class="cls-1" d="M409.45,361.64a4.73,4.73,0,0,1,.47-1.25,6.58,6.58,0,0,1,1.2-1,11.41,11.41,0,0,0,2.52,1.15,15.22,15.22,0,0,0,4.2.32,2.34,2.34,0,0,0,2-2.34,2.39,2.39,0,0,0-1.11-2.47,14.48,14.48,0,0,0-2.15-1c-1-.42-2.12-.71-3.13-1.16a5.42,5.42,0,0,1-3.47-5.24,5.78,5.78,0,0,1,3.1-5.54,8.63,8.63,0,0,1,9.08.42,1.47,1.47,0,0,1,.54,2.07,1.52,1.52,0,0,1-2,.89,20.73,20.73,0,0,0-2.7-.88,6,6,0,0,0-2.35.14,2.24,2.24,0,0,0-1.74,2.05,2.3,2.3,0,0,0,1.25,2.38,20.29,20.29,0,0,0,2.17,1c.88.36,1.8.64,2.68,1,2.23.94,3.65,2.48,3.72,5a6.57,6.57,0,0,1-3.44,6.36,8.29,8.29,0,0,1-5.08,1C413.19,364.37,411.82,363.69,409.45,361.64Z"/><path class="cls-1" d="M719.48,345.19l-1.59,2.12c-1.13-.44-2.11-.89-3.13-1.21-4.52-1.42-8.45.81-9.32,5.47a11.07,11.07,0,0,0,.27,4.68c.94,3.53,3.52,5.22,7.18,4.8a17.91,17.91,0,0,0,3.59-1.17c1.34-.47,2.09.16,2.65,1.49-1.27,2.3-3.62,2.82-6,3.16a10.49,10.49,0,0,1-8.12-2.08c-4.65-3.57-5.32-11.57-1.64-16.42C706.51,341.93,715.38,340.2,719.48,345.19Z"/><path class="cls-1" d="M459.49,363.94c1.86-3.25,4.4-5.29,5.94-8.46l-2.69-.13c-6.06-.26-6.79-7.21-4.34-10.36a7.84,7.84,0,0,1,8.58-2.53c3.11,1,4.74,3.35,4.8,6.86a9.54,9.54,0,0,1-1.53,5.43c-1.74,2.66-3.59,5.25-5.41,7.86C463.66,364.3,462,364.41,459.49,363.94Zm8.57-15.11a3.57,3.57,0,1,0-7.14.15,3.21,3.21,0,0,0,3.61,3.47A3.35,3.35,0,0,0,468.06,348.83Z"/><path class="cls-1" d="M607.57,364.28A2.29,2.29,0,0,1,608,361c1.66-1.72,3.37-3.39,5-5.12a27.45,27.45,0,0,0,3.15-3.59,10.69,10.69,0,0,0,1.37-3.49,2.79,2.79,0,0,0-1.15-2.95,3.64,3.64,0,0,0-4.06.09,16.85,16.85,0,0,0-1.49,1.84c-.89,1-1.93.9-3.32.21a5,5,0,0,1,2.14-4.28,7.58,7.58,0,0,1,5.83-1.64c5,.55,7.43,5,5.18,9.45a20.36,20.36,0,0,1-2.82,3.82c-1.33,1.56-2.79,3-4.13,4.43.6,1.46,1.7.91,2.54,1,1.43.13,2.88,0,4.29.22a1.38,1.38,0,0,1,1.11,1.8,4.29,4.29,0,0,1-1,1.44c-.07.09-.29.11-.44.11-2.71,0-5.43.09-8.14.09C610.5,364.44,608.94,364.33,607.57,364.28Z"/><path class="cls-1" d="M279.23,41.37c-1.65.63-3,.75-4.32,0-.73-3.48-.84-21.11-.18-26.18,2-.72,2-.74,4.36-.23C279.73,18.42,279.85,35.86,279.23,41.37Z"/><path class="cls-1" d="M376.42,39c-2.75,3-6.19,3.68-9.95,2.59s-5.57-4-6.1-7.8a13.62,13.62,0,0,1-.07-2.39c.3-9.19,9.59-11,14.47-7.95.27.17.65.33.74.58.2.54.49,1.23.29,1.67a1.88,1.88,0,0,1-1.4,1,18.32,18.32,0,0,1-2.72-.74c-3.58-.75-6,.91-6.43,4.51a12.2,12.2,0,0,0,.25,4.26,4.54,4.54,0,0,0,5.87,3.46,20.76,20.76,0,0,0,2.18-.94C374.86,36.78,375,36.86,376.42,39Z"/><path class="cls-1" d="M791.65,352c2.38.09,4.43.14,6.47.26a1.55,1.55,0,0,1,0,3.1c-2,.15-4.08.2-6.18.3-1.16,2.79,0,5.6-1,8.49l-2.76.32c-1.16-1.47-1.26-16.56-.24-21.68.83-.07,1.75-.19,2.67-.19,3,0,6-.05,9.06.12,1.56.1,1.53,1.28,1,2.7-2.71,1-5.85-.14-8.78.85C791.1,348,791.38,349.71,791.65,352Z"/><path class="cls-1" d="M520.38,342.93c.7,5.92-.16,12,.5,18.06l3.18,1c.18,2,.06,2.37-1.11,2.39-3,.06-6.06.07-9.08,0a1.83,1.83,0,0,1-1.31-1.13c-.27-.94.46-1.39,1.32-1.56.31-.06.64,0,1-.09s.92-.21,1.35-.3c.83-3.21.93-7.73.24-13L512.81,350l-1.48-1.3c.1-.51.05-.92.23-1.08,1.53-1.39,3.12-2.72,4.65-4.1A3.68,3.68,0,0,1,520.38,342.93Z"/><path class="cls-1" d="M684.68,348l-4,2.15-1.78-2.1c2-1.68,3.78-3.22,5.62-4.69a3.67,3.67,0,0,1,1.71-.72,9.88,9.88,0,0,1,2.12.14c.7,6.06-.12,12.1.5,18.21l3.87,1.29c-.52.84-.85,1.92-1.24,1.94-3.33.15-6.68.17-10,.05-.4,0-.77-1.11-1.36-2l4-1c.14-.21.48-.47.48-.72C684.69,356.52,684.68,352.56,684.68,348Z"/><path class="cls-1" d="M347,26.48c-.76.16-1.06.25-1.37.28-4.53.43-5.41,1.39-5.52,5.93a67.88,67.88,0,0,1-.25,8.81l-3.66.33c-1-3.21-1.2-14.27-.36-19,2.05-1.19,3.22,0,4.38,1.84a23.86,23.86,0,0,1,2.61-1.71,8.85,8.85,0,0,1,2.71-.77c1.52-.18,2.26.7,2.06,2.39A11,11,0,0,1,347,26.48Z"/><path class="cls-1" d="M653.3,360.86a16.58,16.58,0,0,1,2.89.9,2.14,2.14,0,0,1,.83,1.44,1.29,1.29,0,0,1-.82,1c-3.32.07-6.64.1-10,0-.36,0-.68-1.12-1.18-2l4.11-1a56,56,0,0,0,0-13.14c-1.06.67-1.66,1.1-2.31,1.44-1.43.77-1.44.75-3-1.44,2.7-2.1,4.52-5.56,9-5.39.77,3.17.32,6.18.4,9.15S653.3,357.71,653.3,360.86Z"/><path class="cls-1" d="M1024.68,364.13l-3-.14c-.31-.48-.62-.73-.62-1-.08-4-.12-8-.15-11.94,0-1.57,0-3.14,0-4.64-1.85-1.31-3.7-.54-5.34-.94a1.33,1.33,0,0,1-1.15-1.73,2.25,2.25,0,0,1,1.16-1.21,5.12,5.12,0,0,1,1.89-.18c3.82,0,7.64,0,11.46,0a15.92,15.92,0,0,1,2.35.35v2.56l-5.76.62c-.83,3.13-.34,6.17-.47,9.16C1025,357.91,1025.35,360.78,1024.68,364.13Z"/><path class="cls-1" d="M758,342.88a4.36,4.36,0,0,1,1.29-.43c4.46-.05,8.93-.08,13.39-.05,1.71,0,2.31.62,2.16,1.79s-1.13,1.34-2.1,1.4l-4,.24c-.85,3.06-.37,6.08-.45,9.06s0,5.71,0,8.82l-3.57.49a22.31,22.31,0,0,1-.45-2.94c0-3.83,0-7.66,0-11.48,0-1.24-.21-2.47-.34-3.92-1.64-.1-3-.17-4.45-.29S757.83,345.22,758,342.88Z"/><path class="cls-1" d="M781.86,364.1h-3.07c-1-1.27-1-16.37-.26-21.21a4.92,4.92,0,0,1,1.26-.42,11.09,11.09,0,0,1,1.77.16C782.45,346,782.62,357.62,781.86,364.1Z"/><path class="cls-1" d="M971.76,342.88a5.17,5.17,0,0,1,1.28-.41,11.57,11.57,0,0,1,1.8.17c.85,3.3,1,14.81.35,21a2.45,2.45,0,0,1-3.36.2C971.12,360.19,971.08,347.13,971.76,342.88Z"/><path class="cls-1" d="M355.7,41.84h-3.49c-.78-3.58-.88-13.56-.19-18.77a4.1,4.1,0,0,1,3.83.19C356.59,27.63,356.52,38.18,355.7,41.84Z"/><path class="cls-1" d="M808.21,364.37l-2.87-.22c-.69-4-.76-16.42-.16-21.07a4.76,4.76,0,0,1,3-.34C809.12,344,809.18,359.31,808.21,364.37Z"/><path class="cls-1" d="M1038.51,364.14l-2.65.23c-.27-.49-.68-.88-.69-1.29-.29-6.65-.19-13.3-.09-19.67,1.13-1.33,2.21-1,3.28-.71C1039.25,345.82,1039.38,359.13,1038.51,364.14Z"/><path class="cls-1" d="M405.28,364.18h-3.09c-1.07-2.28-.49-4.68-.58-7s-.06-4.77,0-7.15-.26-4.73.31-7.31h3.16C405.77,346.22,405.91,358.09,405.28,364.18Z"/><path class="cls-1" d="M420.77,22.3a7.91,7.91,0,0,0,.49-7.62,10,10,0,0,1,2.1-1.19,1.56,1.56,0,0,1,2.16,1.2,7.45,7.45,0,0,1-2.65,8.47C422.08,23.76,421.42,23.36,420.77,22.3Z"/><path class="cls-1" d="M356.79,16.73a2.91,2.91,0,0,1-3,3A3.07,3.07,0,0,1,351,17a2.9,2.9,0,0,1,3-3A2.76,2.76,0,0,1,356.79,16.73Z"/><path class="cls-1" d="M0,363.16s0,.09,0,0Z"/><path class="cls-1" d="M1256.14,29.87c3.27,3.63,5.26,7.61,7.54,11.48-2.85,1-2.85,1-7.36.59-.75-1.36-1.56-2.89-2.44-4.38a43.48,43.48,0,0,0-2.79-4.47,5.37,5.37,0,0,0-6.14-2.15c-.87,3.49.14,7.21-.67,11a10.4,10.4,0,0,1-5.54-.08c-.71-3.59-.82-22.75-.14-28.12a9.54,9.54,0,0,1,2-.45c4.16,0,8.31,0,12.47,0a13,13,0,0,1,2.85.3,7.57,7.57,0,0,1,6.12,6,7.65,7.65,0,0,1-2.78,8.13C1258.45,28.46,1257.47,29,1256.14,29.87ZM1245,18.44a14.59,14.59,0,0,0-.07,6.6,15.4,15.4,0,0,0,8.44-.22,2.91,2.91,0,0,0,2-2.94,2.79,2.79,0,0,0-1.58-2.71,6.09,6.09,0,0,0-2.24-.7C1249.5,18.38,1247.46,18.44,1245,18.44Z"/></g></g></svg>